<!DOCTYPE svg PUBLIC "-//W3C//DTD SVG 1.1//EN" "http://www.w3.org/Graphics/SVG/1.1/DTD/svg11.dtd">
<!-- Uploaded to: SVG Repo, www.svgrepo.com, Transformed by: SVG Repo Mixer Tools -->
<svg height="99px" width="99px" version="1.1" id="_x32_" xmlns="http://www.w3.org/2000/svg" xmlns:xlink="http://www.w3.org/1999/xlink" viewBox="-51.2 -51.2 614.40 614.40" xml:space="preserve" fill="#000000" transform="matrix(-1, 0, 0, 1, 0, 0)">
<g id="SVGRepo_bgCarrier" stroke-width="0">
<path transform="translate(-51.2, -51.2), scale(19.2)" d="M16,31.798943621106446C20.375790339329562,31.545583434216976,22.79979240558034,27.003032227559686,25.19137906942614,23.329880214998063C27.199369040932314,20.24588057720906,28.56138988516391,16.891076628791613,28.082207750907358,13.242314924629307C27.53166069372173,9.05014064477046,26.24098746639124,4.477693695847834,22.465576749903274,2.574091537645229C18.639474493054102,0.644930166715703,14.229238617069734,2.447205995224143,10.37155645380322,4.312416546922906C6.524129266056496,6.1726687615328695,2.5578340210952657,8.549230927252164,1.528933841095938,12.697073581762012C0.4827341386991386,16.914656429050254,2.745452494105236,21.013886641876628,5.3694528399700445,24.4775784693833C8.102953370419662,28.085811015055118,11.4808296914788,32.06060557132861,16,31.798943621106446" fill="#ff429e" strokewidth="0"/>
</g>
<g id="SVGRepo_tracerCarrier" stroke-linecap="round" stroke-linejoin="round" stroke="#000000" stroke-width="3.072"/>
<g id="SVGRepo_iconCarrier"> <style type="text/css"> .st0{fill:#000000;} </style> <g> <path class="st0" d="M99.407,259.965C44.587,259.965,0,304.552,0,359.372c0,54.811,44.587,99.398,99.407,99.398 c54.811,0,99.406-44.587,99.406-99.398C198.813,304.552,154.218,259.965,99.407,259.965z M99.407,431.538 c-39.793,0-72.157-32.374-72.157-72.166c0-39.801,32.364-72.175,72.157-72.175c39.792,0,72.174,32.374,72.174,72.175 C171.581,399.165,139.199,431.538,99.407,431.538z"/> <path class="st0" d="M412.602,259.965c-54.82,0-99.407,44.587-99.407,99.407c0,54.811,44.587,99.398,99.407,99.398 c54.811,0,99.398-44.587,99.398-99.398C512,304.552,467.413,259.965,412.602,259.965z M412.602,431.538 c-39.801,0-72.175-32.374-72.175-72.166c0-39.801,32.374-72.175,72.175-72.175c39.792,0,72.166,32.374,72.166,72.175 C484.768,399.165,452.394,431.538,412.602,431.538z"/> <path class="st0" d="M267.288,63.74l-142.7,24.504c-11.179,1.486-19.552,8.747-19.552,19.553l2.38,54.134l3.17,72.174 c0,7.731,6.272,13.994,14.002,13.994c7.74,0,14.002-6.263,14.002-13.994l3.301-77.083l68.605-18.537 c0,0-25.243,29.96-27.336,32.574c-10.459,13.072-14.246,37.039,2.614,49.678l73.009,53.021l4.144,63.532 c0,10.519,8.53,19.049,19.04,19.049c10.51,0,19.04-8.53,19.04-19.049c0-0.417,16.773-203.573,16.773-203.573 C322.637,91.363,298.254,58.867,267.288,63.74z M228.825,204.755c-3.648-2.71-2.728-6.341,0-9.972 c2.718-3.648,24.512-21.785,24.512-21.785l4.535,57.173L228.825,204.755z"/> <path class="st0" d="M53.986,123.85c19.492,0,35.302-15.809,35.302-35.301c0-19.51-15.81-35.319-35.302-35.319 c-19.501,0-35.31,15.809-35.31,35.319C18.676,108.041,34.484,123.85,53.986,123.85z"/> </g> </g>
</svg>